<svg width="20" height="20" viewBox="0 0 20 20" fill="none" xmlns="http://www.w3.org/2000/svg">
<g clip-path="url(#clip0_13_2)">
<path d="M18.125 0.468746H1.875C1.5063 0.464994 1.15117 0.607659 0.887529 0.865438C0.623892 1.12322 0.473283 1.47505 0.46875 1.84375V18.1594C0.474103 18.5275 0.625072 18.8786 0.88862 19.1357C1.15217 19.3928 1.50683 19.535 1.875 19.5312H18.125C18.4937 19.5342 18.8486 19.391 19.1121 19.1331C19.3756 18.8751 19.5263 18.5234 19.5312 18.1547V1.83906C19.5247 1.47145 19.3733 1.12129 19.1099 0.864692C18.8466 0.608097 18.4927 0.465805 18.125 0.468746Z" fill="#0076B2"/>
<path d="M3.29061 7.61406H6.1203V16.7187H3.29061V7.61406ZM4.70624 3.08281C5.03079 3.08281 5.34805 3.17907 5.61788 3.35941C5.88772 3.53976 6.098 3.79608 6.22213 4.09596C6.34626 4.39583 6.37865 4.72579 6.31522 5.04408C6.25179 5.36237 6.09538 5.6547 5.86578 5.88408C5.63618 6.11347 5.3437 6.2696 5.02535 6.33273C4.707 6.39585 4.37707 6.36314 4.07732 6.23873C3.77756 6.11431 3.52143 5.90378 3.34135 5.63378C3.16126 5.36377 3.0653 5.04642 3.06561 4.72187C3.06603 4.28702 3.23906 3.87012 3.54669 3.56278C3.85433 3.25545 4.27139 3.08281 4.70624 3.08281ZM7.8953 7.61406H10.6078V8.86406H10.6453C11.0234 8.14843 11.9453 7.39375 13.3219 7.39375C16.1875 7.3875 16.7187 9.27343 16.7187 11.7187V16.7187H13.8891V12.2891C13.8891 11.2344 13.8703 9.87656 12.4187 9.87656C10.9672 9.87656 10.7203 11.0266 10.7203 12.2203V16.7187H7.8953V7.61406Z" fill="white"/>
</g>
<defs>
<clipPath id="clip0_13_2">
<rect width="20" height="20" fill="white"/>
</clipPath>
</defs>
</svg>
