<svg width="20" height="20" viewBox="0 0 20 20" fill="none" xmlns="http://www.w3.org/2000/svg">
<g clip-path="url(#clip0_13_22)">
<path d="M4.54569 19.9016V9.65181L2.14932 6.74373L0.000427246 5.12994V18.0927C0.000427246 19.0936 0.611728 19.9016 1.36404 19.9016H4.54569Z" fill="#4285F4"/>
<path d="M15.4543 19.9016H18.6359C19.3905 19.9016 19.9996 19.0906 19.9996 18.0927V5.13005L17.5656 6.97844L15.4543 9.65181V19.9016Z" fill="#34A853"/>
<path d="M4.54568 9.65182L4.2196 5.64695L4.54568 1.81389L9.99997 7.24021L15.4543 1.81389L15.819 5.44L15.4543 9.65182L9.99997 15.0781L4.54568 9.65182Z" fill="#EA4335"/>
<path d="M15.4543 1.8139V9.65183L19.9996 5.12996V2.71825C19.9996 0.481465 18.0746 -0.793665 16.727 0.547786L15.4543 1.8139Z" fill="#FBBC04"/>
<path d="M0.000427246 5.12996L2.09088 7.20976L4.54569 9.65183V1.8139L3.27294 0.547787C1.923 -0.793767 0.000427246 0.481466 0.000427246 2.71815V5.12996Z" fill="#C5221F"/>
</g>
<defs>
<clipPath id="clip0_13_22">
<rect width="20" height="20" fill="white"/>
</clipPath>
</defs>
</svg>
