<svg width="62" height="62" viewBox="0 0 62 62" fill="none" xmlns="http://www.w3.org/2000/svg">
<path d="M35.1866 13.2251C34.1625 12.2509 34.7216 9.71173 34.7216 9.71173C34.7216 9.71173 34.7676 9.52662 34.8759 9.22356C35.4983 7.48065 38.1774 1.83637 45.9849 5.06172L44.0216 5.57839C44.0216 5.57839 50.3249 5.92311 50.3249 16.1184C50.3249 26.3137 50.3249 40.1951 50.3249 40.1951C50.3249 40.1951 45.5022 44.4826 39.4749 37.4051C33.4477 30.3275 35.1172 19.7383 35.1172 19.7383C35.1172 19.7383 36.2108 14.1993 35.1866 13.2251Z" fill="#3B444F"/>
<path d="M31.1049 11.4684C38.2672 11.4684 44.0733 17.2745 44.0733 24.4367V27.1234C44.0733 34.2856 38.2672 40.0917 31.1049 40.0917C23.9427 40.0917 18.1366 34.2856 18.1366 27.1234V24.4367C18.1366 17.2745 23.9427 11.4684 31.1049 11.4684Z" fill="#3B444F"/>
<path d="M14.2116 60.7891C14.2116 60.7891 13.4105 49.892 23.6666 48.875H28.2649V46.7567C28.2649 46.7567 31.4995 48.1461 34.7749 46.9117L34.8782 48.875H40.2516C40.2516 48.875 49.4529 49.2364 49.0349 60.8924L14.2116 60.7891Z" fill="white"/>
<path d="M49.0036 61.2234H14.5505H13.8823L14.0491 58.3741C14.3748 52.8108 18.7581 48.5651 23.7741 48.5651H27.5916V49.1334H24.0786C19.2442 49.1334 15.0196 53.2201 14.7057 58.5751L14.5899 60.5517H48.9126L48.8484 58.5751C48.5346 53.2201 44.31 49.1334 39.4755 49.1334H34.7733V48.5651H39.7494C44.7654 48.5651 49.1487 52.8108 49.4744 58.3741L49.6412 61.2234H49.0036Z" fill="#3B434F"/>
<path d="M31.3294 54.9717C28.5615 54.9717 26.3177 52.7279 26.3177 49.9601C26.3177 49.4758 26.3878 49.0081 26.516 48.5651H26.5244H27.0562H27.971V49.1334H26.9117C26.8615 49.4014 26.8344 49.6775 26.8344 49.9601C26.8344 52.4426 28.8469 54.4551 31.3294 54.4551C33.8119 54.4551 35.8244 52.4426 35.8244 49.9601C35.8244 49.6775 35.7972 49.4014 35.747 49.1334H34.6877V48.5651H35.6025H36.1344H36.1428C36.271 49.0081 36.341 49.4758 36.341 49.9601C36.341 52.7279 34.0972 54.9717 31.3294 54.9717Z" fill="#3B434F"/>
<path d="M28.2633 46.5177V49.7043C28.2633 51.3579 29.6049 52.6984 31.2599 52.6984C32.915 52.6984 34.2566 51.3579 34.2566 49.7043V46.5834C34.4305 46.5305 34.6028 46.473 34.7733 46.4109V49.726C34.7733 51.6815 33.1887 53.2667 31.2341 53.2667C29.2795 53.2667 27.6949 51.6815 27.6949 49.726V46.3127C27.8821 46.3868 28.0717 46.4548 28.2633 46.5177Z" fill="#3B434F"/>
<path d="M31.3641 15.1884C37.9067 15.1884 42.8838 20.9263 42.6175 27.4919L42.2561 36.4019C41.2322 42.4512 37.0618 46.8185 31.4098 47.4284C25.8965 46.849 21.6442 42.4496 20.4721 36.4019L20.1107 27.4919C19.8444 20.9263 24.8215 15.1884 31.3641 15.1884Z" fill="white"/>
<path fill-rule="evenodd" clip-rule="evenodd" d="M43.3403 27.114L42.9556 36.4238C41.8659 42.7445 37.4273 47.3078 31.4119 47.9451C25.5441 47.3397 21.0184 42.7429 19.771 36.4238L19.3864 27.114C19.1029 20.2537 24.4 14.2584 31.3633 14.2584C38.3266 14.2584 43.6237 20.2537 43.3403 27.114ZM31.3641 14.9817C24.8215 14.9817 19.8444 20.7196 20.1107 27.2853L20.4721 36.1953C21.6442 42.243 25.8965 46.6423 31.4098 47.2217C37.0618 46.6119 41.2322 42.2445 42.2561 36.1953L42.6175 27.2853C42.8838 20.7196 37.9067 14.9817 31.3641 14.9817Z" fill="#3B434F"/>
<path d="M36.9433 39.6371C36.0042 40.4525 33.883 41.2284 31.415 41.2284C28.9469 41.2284 26.8257 40.4525 25.8866 39.6371C25.8866 39.6371 25.7905 39.3727 25.9315 39.2318C26.0751 39.0882 26.2999 39.1194 26.2999 39.1194C27.2381 39.9354 28.946 40.6084 31.415 40.6084C33.8839 40.6084 35.5918 39.9354 36.5299 39.1194C36.5299 39.1194 36.7594 39.0342 36.8709 39.1457C37.0856 39.3604 36.9433 39.6371 36.9433 39.6371Z" fill="#3B434F"/>
<path d="M29.7099 42.4684H33.0166V42.985H29.7099V42.4684Z" fill="#3B434F"/>
<path d="M19.4727 28.2528C19.4713 28.2528 19.3459 28.1527 19.109 28.0781C18.9907 28.0409 18.8435 28.0103 18.6758 28.0027C18.6339 28.0008 18.5908 28.0004 18.5467 28.0017C18.5026 28.0029 18.4575 28.0059 18.4117 28.0108C18.32 28.0205 18.2253 28.0382 18.13 28.0656C17.7484 28.1752 17.3591 28.4418 17.1305 28.9921C17.0157 29.2673 16.94 29.6134 16.92 30.0465C16.915 30.1548 16.9135 30.2685 16.9157 30.3878C16.9179 30.5072 16.9238 30.6323 16.9337 30.7633C16.9535 31.0253 16.9892 31.311 17.0425 31.6224C17.0413 31.6221 16.9928 32.5633 17.3293 33.6448C17.6456 34.7022 18.4052 36.0011 19.8077 36.3722C19.6464 33.6865 19.6414 30.9503 19.4727 28.2528Z" fill="white"/>
<path d="M19.6327 28.361C19.6327 28.361 17.1894 27.604 17.2754 30.1158C17.2754 30.1158 17.6392 33.7579 17.7971 34.0936C17.7971 34.0936 18.7567 36.2142 20.3402 36.3082L20.3594 36.9917C20.3594 36.9917 17.5761 36.6348 17.0386 33.4274L16.6143 30.5135C16.6143 30.5135 16.2848 26.6573 19.4805 27.6378L19.6327 28.361Z" fill="#3B434F"/>
<path d="M18.8262 33.4212C18.8262 33.4212 18.6895 33.5246 18.572 33.5246C18.4546 33.5246 18.3195 33.4212 18.3195 33.4212L18.0674 30.8804C18.0674 30.8804 18.4153 29.629 19.8915 30.2903L19.9264 31.0168C19.9264 31.0168 18.6312 30.5575 18.658 31.1295C18.6838 31.68 18.8262 33.4212 18.8262 33.4212Z" fill="#3B434F"/>
<path d="M43.329 28.2587C43.3304 28.2588 43.4564 28.1587 43.6943 28.0841C43.8132 28.047 43.961 28.0164 44.1294 28.0088C44.1714 28.007 44.2147 28.0065 44.259 28.0078C44.3033 28.009 44.3486 28.012 44.3947 28.0168C44.4868 28.0266 44.5819 28.0442 44.6776 28.0716C45.0609 28.1812 45.4519 28.4476 45.6815 28.9976C45.7967 29.2726 45.8728 29.6184 45.8929 30.0512C45.8979 30.1594 45.8994 30.273 45.8972 30.3923C45.895 30.5116 45.8891 30.6366 45.8791 30.7675C45.8593 31.0293 45.8234 31.3149 45.7699 31.626C45.7711 31.6257 45.8198 32.5663 45.4818 33.647C45.1641 34.7037 44.4012 36.0017 42.9925 36.3727C43.1545 33.6887 43.1596 30.9544 43.329 28.2587Z" fill="white"/>
<path d="M43.0467 28.3669C43.0467 28.3669 45.5007 27.6104 45.4143 30.1204C45.4143 30.1204 45.049 33.7601 44.8903 34.0956C44.8903 34.0956 43.9266 36.2147 42.3361 36.3087L42.3168 36.9917C42.3168 36.9917 45.1123 36.6351 45.6522 33.4298L46.0783 30.5179C46.0783 30.5179 46.4092 26.6644 43.1996 27.6442L43.0467 28.3669Z" fill="#3B434F"/>
<path d="M43.8567 33.4237C43.8567 33.4237 43.994 33.5269 44.112 33.5269C44.23 33.5269 44.3656 33.4237 44.3656 33.4237L44.6189 30.8845C44.6189 30.8845 44.2695 29.6341 42.7867 30.2949L42.7517 31.0209C42.7517 31.0209 44.0526 30.5619 44.0257 31.1335C43.9998 31.6837 43.8567 33.4237 43.8567 33.4237Z" fill="#3B434F"/>
<path fill-rule="evenodd" clip-rule="evenodd" d="M32.3191 33.2201C32.3794 33.2201 32.4397 33.2201 32.4999 33.2201C32.8738 33.7278 33.0259 34.5081 33.2233 35.1834C33.2844 35.3927 33.2251 35.7587 33.1716 35.9067C32.9757 36.4487 32.3606 36.439 31.8541 36.6817C31.7181 36.7469 31.6169 36.8595 31.4408 36.8884C31.3259 36.7872 31.1873 36.7674 31.1308 36.6042C30.9912 36.4121 31.1711 36.2921 31.3116 36.2167C31.5667 36.0799 32.354 35.9451 32.4483 35.7001C32.5649 35.5674 32.4874 35.1684 32.4483 35.0284C32.3482 34.6697 32.3001 34.3702 32.1641 34.0467C32.0738 33.8318 31.9151 33.6053 32.0091 33.3492C32.087 33.3158 32.2553 33.2778 32.3191 33.2201Z" fill="#3B434F"/>
<path d="M25.1633 29.2417H25.8866C26.2861 29.2417 26.61 29.5656 26.61 29.9651C26.61 30.3645 26.2861 30.6884 25.8866 30.6884H25.1633C24.7638 30.6884 24.4399 30.3645 24.4399 29.9651C24.4399 29.5656 24.7638 29.2417 25.1633 29.2417Z" fill="#3B434F"/>
<path d="M36.9433 29.2417H37.6666C38.0661 29.2417 38.3899 29.5656 38.3899 29.9651C38.3899 30.3645 38.0661 30.6884 37.6666 30.6884H36.9433C36.5438 30.6884 36.2199 30.3645 36.2199 29.9651C36.2199 29.5656 36.5438 29.2417 36.9433 29.2417Z" fill="#3B434F"/>
<path d="M37.6149 32.6517C38.3283 32.6517 38.9066 33.23 38.9066 33.9434C38.9066 34.6568 38.3283 35.2351 37.6149 35.2351C36.9016 35.2351 36.3233 34.6568 36.3233 33.9434C36.3233 33.23 36.9016 32.6517 37.6149 32.6517Z" fill="#EDF1F1"/>
<path d="M25.1116 32.6517C25.825 32.6517 26.4033 33.23 26.4033 33.9434C26.4033 34.6568 25.825 35.2351 25.1116 35.2351C24.3982 35.2351 23.82 34.6568 23.82 33.9434C23.82 33.23 24.3982 32.6517 25.1116 32.6517Z" fill="#EDF1F1"/>
<path fill-rule="evenodd" clip-rule="evenodd" d="M42.6177 27.7159C42.5478 28.3129 42.4864 29.0434 42.3573 29.6965C41.9713 31.6496 40.2931 33.4591 37.4276 33.6653C34.5621 33.8714 32.1232 32.4288 31.9803 30.4431C31.9561 30.1065 31.8913 29.7287 31.8415 29.3613C31.436 29.1365 31.018 29.136 30.5876 29.3598C30.5374 29.7354 30.4701 30.1232 30.4453 30.4679C30.3019 32.4602 27.8554 33.9076 24.9808 33.7007C22.1062 33.4939 20.4228 31.6784 20.0355 29.7188C19.906 29.0635 19.8445 28.3306 19.7743 27.7316L19.3519 27.7012L19.4113 26.8767L19.5143 26.8841L22.1286 27.0722L24.3353 27.231L26.5461 27.3901L29.9896 27.6379C30.2271 27.668 30.385 27.7698 30.4867 27.9219C30.9812 28.1383 31.4615 28.1392 31.9275 27.9244C32.0283 27.7626 32.1883 27.6536 32.4346 27.6225L35.8673 27.3755L38.0711 27.2169L40.2709 27.0587L42.8769 26.8712L42.9797 26.8638L43.0388 27.6856L42.6177 27.7159ZM29.0649 28.6068L22.3162 28.1212C21.4335 28.0451 21.1206 29.037 21.0662 29.793C20.9515 31.3868 22.7274 32.8133 25.0327 32.9792C27.3381 33.1451 29.2999 31.9876 29.4146 30.3938C29.469 29.6378 29.7159 29.1709 29.0649 28.6068ZM41.3299 29.7704C41.2757 29.017 40.9638 28.0283 40.0839 28.1042L33.3564 28.5882C32.7074 29.1504 32.9535 29.6157 33.0077 30.3692C33.1221 31.9578 35.0777 33.1115 37.3759 32.9462C39.674 32.7808 41.4443 31.359 41.3299 29.7704Z" fill="#3B444F"/>
<path d="M20.3066 20.2517L24.0783 15.4467L27.4883 13.845L32.0866 13.1217L37.3566 13.4317L44.4349 20.7684L42.5233 27.6917C42.5233 27.6917 42.0851 24.6383 39.7333 22.215C37.5395 19.9546 36.1166 19.3992 36.1166 19.3992C36.1166 19.3992 35.287 22.7471 29.7616 22.6284C19.8509 22.4155 20.2911 29.4537 19.9449 30.0684C19.9069 30.1359 19.8933 27.1234 19.8933 27.1234L20.3066 20.2517Z" fill="#3B434F"/>
</svg>
